<svg height="448pt" viewBox="-6 0 448 448" width="448pt" xmlns="http://www.w3.org/2000/svg"><path d="m108.71875 224h160v112h-160zm0 0"/><path d="m108.71875 208h160v-32h-160zm56-24h16v16h-16zm-24 0h16v16h-16zm-24 0h16v16h-16zm0 0"/><path d="m196.71875 104c-83.914062.074219-151.921875 68.082031-152 152-.007812 5.078125.257812 10.152344.800781 15.199219.277344 3.460937-1.640625 6.722656-4.800781 8.160156l-40.71875 40.640625h36.71875c4.417969 0 8 3.582031 8 8v24c.035156 30.914062 25.089844 55.964844 56 56h76.480469c1.351562-.625 2.835937-.898438 4.320312-.800781 1.601563.160156 3.199219.242187 4.800781.320312l2.800782.082031c4.246094.238282 7.574218 3.742188 7.597656 8v32.398438h96v-70.558594c.011719-2.335937 1.035156-4.554687 2.800781-6.082031 48.363281-41.335937 65.839844-108.4375 43.785157-168.113281-22.054688-59.679688-78.960938-99.289063-142.585938-99.246094zm88 240c0 4.417969-3.582031 8-8 8h-176c-4.417969 0-8-3.582031-8-8v-176c0-4.417969 3.582031-8 8-8h176c4.417969 0 8 3.582031 8 8zm0 0"/><path d="m132.71875 0v64h208c4.417969 0 8 3.582031 8 8-.015625 2.289062-1.039062 4.457031-2.796875 5.921875l-16 38.238281 60.71875-50.320312c1.65625-1.363282 3.78125-2.027344 5.917969-1.839844h40.160156v-64zm80 56h-16v-16h-24v16h-16v-48h16v16h24v-16h16zm64-32h-16v32h-16v-32h-16v-16h48zm64 32h-16v-20.71875l-2.320312 2.398438c-3.152344 3.09375-8.203126 3.09375-11.359376 0l-2.320312-2.398438v20.71875h-16v-48h16v4.71875l8 8 8-8v-4.71875h16zm64 0h-48v-48h16v32h32zm0 0"/></svg>