<?xml version="1.0" encoding="utf-8"?>
<!-- Svg Vector Icons : http://www.sfont.cn -->
<!DOCTYPE svg PUBLIC "-//W3C//DTD SVG 1.1//EN" "http://www.w3.org/Graphics/SVG/1.1/DTD/svg11.dtd">
<svg version="1.1" xmlns="http://www.w3.org/2000/svg" xmlns:xlink="http://www.w3.org/1999/xlink" x="0px" y="0px" viewBox="0 0 1000 1000" enable-background="new 0 0 1000 1000" xml:space="preserve">
<metadata> Svg Vector Icons : http://www.sfont.cn </metadata>
<g><g><path d="M974.6,259.9c-36.4-11.5-108.8-29.7-142.9-7.2c-9.6,6.3-9.5,19.3,0,25.6c26,17.4,66.5,13.4,101.8,16.4c-37.5,53.5-79.3,103.1-124.2,150.9c-38.9,41.4-130.1,7-190.9-7c20.4-13.5,39.5-31.9,52-42.4c56.8-47.6,107.4-101.9,162.2-151.6c12.9-11.7,5.4-28.1-6.9-33.8C815,156.9,807.1,103.6,800.9,49C799,32.6,781,22.8,767.8,35.3c-60.4,57-134.7,103.5-185.4,170c-52.9,69.4-39.5,149.6-17.5,228.4c-2.3,2.7-4.7,5.3-6.1,8.5c-0.8,1.8-0.9,4-0.4,6c-1.4,2.3-2.7,4.4-3.7,6.1c-0.2,0.3-0.2,0.7-0.4,1c-2.6-1.9-4.6-4-7.4-5.8C339.1,316.1,32,693.4,132.2,840c-37.8,33.1-75.7,65.7-115.3,96.6C-2,951.3,22,978.1,41.3,968.3c41.4-21.2,79.9-49,112.4-82.5c6.1-6.3,6.7-13.4,4.6-19.7c12.5,8.9,27.5,16.3,45.9,21.3c78.5,73.6,234.5-74.6,282.5-124.9c28.5-29.9,65.7-77.8,89.3-128.8c2.4-0.3,5-0.3,7.2-1c11.6-3.4,14-19.2,3.7-25.7c17.5-49.5,18.6-99.3-15.6-136.6c0.7-0.5,1.4-0.9,2.1-1.7c1.9-2.3,4-4.4,6.1-6.5c3.7,2.8,8.7,3.7,13.2,1.2c1.8-1,3.5-2.4,5.1-3.9c61.9,18.7,124,36,185.4,56.6c6.9,2.3,15-0.3,20-5.3C871.4,443,934.1,370.7,987,290.3C994.6,278.7,986.8,263.7,974.6,259.9z M640.4,199.5c38.7-40.4,83.8-74,125.9-110.8c4.4,45.8,9,93.7,26.3,135c-40.3,37.7-78.5,77.5-117.9,116.1c-22.5,22-45.8,43.3-70.2,63.3c-4.3,3.5-9.4,6.8-14.6,10.2C582,331.7,575.7,267,640.4,199.5z M220.1,856.9c-6.4-4.2-12.7-3.2-17.4,0.2c-44.5-26.8-57.6-70.1-50.2-118.4c21.2,25.6,49.3,45.8,77,63.6c10,7.9,20.8,14.4,32.3,19.8c20,11.5,44.8,23.6,65.8,26.9C286.1,869.1,247.4,874.8,220.1,856.9z M360,830.6c-0.6-1.4-1.1-2.9-2.5-4.1c-9.9-8.9-21.2-10-33.8-13.7c-4.1-1.2-8.1-2.9-12.1-4.2c-0.8-0.4-1.5-1-2.5-1.3c-6.6-2.2-13.1-4.3-19.4-6.5c-9.8-4-19.4-8.2-29-12.7c-7.1-3.4-14.1-7.1-21.1-10.8c-3.5-2.3-7.1-4.4-10.5-7.1c-24.1-19.1-40.9-45.8-51.8-74.2c-2-5.3-7.1-7-11.5-6.1c9.2-23,22.3-46.2,37.9-68.7c4.4,51.7,34.5,93,72.7,126.5c29.4,25.8,83.2,58.6,125.7,52.2C388.1,811.1,374.1,821.7,360,830.6z M419.9,784.3c-0.5-5.5-3.8-10.9-9.9-13.1c-14.7-5.3-30.5-5.7-45.7-9.6c-22.5-5.8-42.9-17.4-62.4-29.7c-41.2-26.1-73.7-66.5-82.6-115.1c-0.8-4.6-5.1-6.3-9-5.7c14.8-20.2,31.8-39.4,50.2-57.2c3.7,49.4,34,92.5,69.2,125.7c27.5,25.9,94.1,73.8,133.1,50.9c8.4-4.9,7.3-15.9,0-21c-13.9-9.7-31.3-8.8-47.4-13.5c-23.9-7-46.1-21.4-65.4-36.6c-37.3-29.4-61.5-69-72-114.9c-0.4-1.8-1.6-2.8-2.8-3.9c17-15,35.1-28.5,53.6-40.1c9.9,48.5,37.3,92.6,70.1,128.8c21.6,23.8,79.7,70.8,110.1,34.9c7.4-8.8,2.5-21-9.1-21.9c-15-1.1-27.2,1.1-41.6-5.3c-19.7-8.8-35.7-24.7-50.3-40c-27.7-29.1-52.2-66.4-64.9-104.9c22.6-12.7,45.8-21.9,68.6-27.3c0,0.1-0.1,0.2-0.1,0.3c-8.3,47.1,11,86.9,46,118c18.3,16.2,50.8,37.6,81.9,47C514.3,683.2,469.6,739.7,419.9,784.3z M552.8,596.8c-4-0.8-7.9-1.6-11.7-2.6c-19-5.3-36.7-14.1-53.5-24.4c-36.6-22.4-60.9-58.7-57.4-102.3c0.2-2.4-0.7-4.4-2-5.9c37.9-5.5,74.2,1,104.8,25.2C564.1,511.4,567.2,551.6,552.8,596.8z"/></g><g></g><g></g><g></g><g></g><g></g><g></g><g></g><g></g><g></g><g></g><g></g><g></g><g></g><g></g><g></g></g>
</svg>